<svg width="65" height="65" viewBox="0 0 65 65" fill="none" xmlns="http://www.w3.org/2000/svg">
<path d="M17.1465 21.6666H47.8562C48.6372 21.6665 49.409 21.8353 50.1187 22.1614C50.8283 22.4876 51.4591 22.9633 51.9676 23.556C52.4762 24.1487 52.8506 24.8443 53.0652 25.5953C53.2797 26.3462 53.3293 27.1347 53.2106 27.9066L49.8117 49.985C49.5166 51.9037 48.5443 53.6533 47.0708 54.9172C45.5973 56.181 43.72 56.8755 41.7787 56.875H23.2212C21.2805 56.8749 19.4038 56.1801 17.9309 54.9163C16.4579 53.6525 15.486 51.9032 15.191 49.985L11.7921 27.9066C11.6734 27.1347 11.723 26.3462 11.9375 25.5953C12.1521 24.8443 12.5265 24.1487 13.0351 23.556C13.5436 22.9633 14.1744 22.4876 14.884 22.1614C15.5937 21.8353 16.3655 21.6665 17.1465 21.6666Z" stroke="#F7654A" stroke-width="4" stroke-linecap="round" stroke-linejoin="round"/>
<path d="M24.375 29.7917V16.25C24.375 14.0951 25.231 12.0285 26.7548 10.5048C28.2785 8.98102 30.3451 8.125 32.5 8.125C34.6549 8.125 36.7215 8.98102 38.2452 10.5048C39.769 12.0285 40.625 14.0951 40.625 16.25V29.7917" stroke="#F7654A" stroke-width="4" stroke-linecap="round" stroke-linejoin="round"/>
</svg>
