<svg width="65" height="65" viewBox="0 0 65 65" fill="none" xmlns="http://www.w3.org/2000/svg">
<path d="M5.41667 32.5H8.125" stroke="#F7654A" stroke-width="4" stroke-linecap="round" stroke-linejoin="round"/>
<path d="M16.25 21.6666H10.8333C10.115 21.6666 9.42616 21.952 8.91825 22.4599C8.41034 22.9678 8.125 23.6567 8.125 24.375V40.625C8.125 41.3433 8.41034 42.0321 8.91825 42.54C9.42616 43.048 10.115 43.3333 10.8333 43.3333H16.25" stroke="#F7654A" stroke-width="4" stroke-linecap="round" stroke-linejoin="round"/>
<path d="M16.25 18.9583V46.0417C16.25 46.76 16.5353 47.4488 17.0433 47.9567C17.5512 48.4647 18.24 48.75 18.9583 48.75H21.6667C22.385 48.75 23.0738 48.4647 23.5817 47.9567C24.0897 47.4488 24.375 46.76 24.375 46.0417V18.9583C24.375 18.24 24.0897 17.5512 23.5817 17.0433C23.0738 16.5353 22.385 16.25 21.6667 16.25H18.9583C18.24 16.25 17.5512 16.5353 17.0433 17.0433C16.5353 17.5512 16.25 18.24 16.25 18.9583Z" stroke="#F7654A" stroke-width="4" stroke-linecap="round" stroke-linejoin="round"/>
<path d="M24.375 32.5H40.625" stroke="#F7654A" stroke-width="4" stroke-linecap="round" stroke-linejoin="round"/>
<path d="M40.625 18.9583V46.0417C40.625 46.76 40.9103 47.4488 41.4183 47.9567C41.9262 48.4647 42.615 48.75 43.3333 48.75H46.0417C46.76 48.75 47.4488 48.4647 47.9567 47.9567C48.4647 47.4488 48.75 46.76 48.75 46.0417V18.9583C48.75 18.24 48.4647 17.5512 47.9567 17.0433C47.4488 16.5353 46.76 16.25 46.0417 16.25H43.3333C42.615 16.25 41.9262 16.5353 41.4183 17.0433C40.9103 17.5512 40.625 18.24 40.625 18.9583Z" stroke="#F7654A" stroke-width="4" stroke-linecap="round" stroke-linejoin="round"/>
<path d="M48.75 21.6666H54.1667C54.885 21.6666 55.5738 21.952 56.0817 22.4599C56.5897 22.9678 56.875 23.6567 56.875 24.375V40.625C56.875 41.3433 56.5897 42.0321 56.0817 42.54C55.5738 43.048 54.885 43.3333 54.1667 43.3333H48.75" stroke="#F7654A" stroke-width="4" stroke-linecap="round" stroke-linejoin="round"/>
<path d="M59.5833 32.5H56.875" stroke="#F7654A" stroke-width="4" stroke-linecap="round" stroke-linejoin="round"/>
</svg>
