<svg width="65" height="65" viewBox="0 0 65 65" fill="none" xmlns="http://www.w3.org/2000/svg">
<path d="M10.8333 32.5C10.8333 33.9366 13.1161 35.3144 17.1794 36.3302C21.2426 37.346 26.7536 37.9167 32.5 37.9167C38.2464 37.9167 43.7574 37.346 47.8207 36.3302C51.8839 35.3144 54.1667 33.9366 54.1667 32.5C54.1667 31.0635 51.8839 29.6857 47.8207 28.6699C43.7574 27.6541 38.2464 27.0834 32.5 27.0834C26.7536 27.0834 21.2426 27.6541 17.1794 28.6699C13.1161 29.6857 10.8333 31.0635 10.8333 32.5Z" stroke="#F7654A" stroke-width="4" stroke-linecap="round" stroke-linejoin="round"/>
<path d="M10.8333 32.5V51.4583C10.8333 54.0042 17.6313 56.2927 27.0833 56.875V48.75H37.9167V56.875C47.2198 56.2656 54.1667 53.9771 54.1667 51.4583V32.5" stroke="#F7654A" stroke-width="4" stroke-linecap="round" stroke-linejoin="round"/>
<path d="M40.625 16.25H51.4583V8.125H40.625V27.0833" stroke="#F7654A" stroke-width="4" stroke-linecap="round" stroke-linejoin="round"/>
<path d="M18.9583 16.25H29.7917V8.125H18.9583V27.0833" stroke="#F7654A" stroke-width="4" stroke-linecap="round" stroke-linejoin="round"/>
</svg>
